{"title":"Mr.Nice.2010.DVDRiP.XViD.AC3.NiTR0","uid":6161131,"size":1482658868,"categoryP":"video","categoryS":"movies","magnet":"?xt=urn:btih:03e871e0730602987865623f3e8c7e14876a4a90&amp;dn=Mr.Nice.2010.DVDRiP.XViD.AC3.NiTR0&amp;tr=udp%3A%2F%2Ftracker.openbittorrent.com%3A80&amp;tr=udp%3A%2F%2Fopen.demonii.com%3A1337&amp;tr=udp%3A%2F%2Ftracker.coppersurfer.tk%3A6969&amp;tr=udp%3A%2F%2Fexodus.desync.com%3A6969","seeders":0,"leechers":0,"uploader":"TvTeam","files":5,"time":1297215951,"description":". \n  &lt;a href=&quot;\nhttp://www.torrentday.com/&quot; rel=&quot;nofollow&quot; target=&quot;_NEW&quot;&gt;\nhttp://www.torrentday.com/&lt;/a&gt;        :     The Hottest Private Tracker On The Net!!!\n &lt;a href=&quot;\nhttp://www.torrentday.com&quot; rel=&quot;nofollow&quot; target=&quot;_NEW&quot;&gt;\nhttp://www.torrentday.com&lt;/a&gt;          :     Once &amp; For all ;)\n\n\n               www . TorrentDay . Com \n\n(((((((((((((= Enjoy No RAR releases =))))))))))))))))))))\n\n\n...................................NFO:....................................\n\n.[img]http://img262.imageshack.us/img262/2758/mrnicemovieposter102066.jpg[/img]\n\n[color=red][size=4][b]Mr.Nice.2010.DVDRiP.XViD.AC3.NiTR0[/b][/size][/color]\n\nSource: R2 PAL\nGenre: Drama/romance\nIMDB: http://www.imdb.com/title/tt1183911/\nRating IMDB: 6.6/10 (328 votes)\nLanguage: English\nSubtitles: None\nRunTime: 116min\n\n[color=red][size=3][b]General[/b][/size][/color]\nComplete name                    : Mr.Nice.2010.DVDRiP.XViD.AC3.NiTR0.avi\nFormat                           : AVI\nFormat/Info                      : Audio Video Interleave\nFormat profile                   : OpenDML\nFormat settings                  : rec\nFile size                        : 1.37 GiB\nDuration                         : 1h 55mn\nOverall bit rate                 : 1 688 Kbps\n\n[color=red][size=3][b]Video[/b][/size][/color]\nFormat                           : MPEG-4 Visual\nFormat profile                   : Advanced Simple@L5\nFormat settings, BVOP            : 2\nFormat settings, QPel            : No\nFormat settings, GMC             : No warppoints\nFormat settings, Matrix          : Default (H.263)\nMuxing mode                      : Packed bitstream\nCodec ID                         : XVID\nDuration                         : 1h 55mn\nBit rate                         : 1 234 Kbps\nWidth                            : 720 pixels\nHeight                           : 384 pixels\nDisplay aspect ratio             : 1.875\nFrame rate                       : 25.000 fps\nScan type                        : Progressive\nStream size                      : 1 024 MiB (73%)\n\n[color=red][size=3][b]Audio[/b][/size][/color]\nFormat                           : AC-3\nFormat/Info                      : Audio Coding 3\nMode extension                   : CM (complete main)\nDuration                         : 1h 55mn\nBit rate mode                    : Constant\nBit rate                         : 448 Kbps\nChannel(s)                       : 6 channels\nChannel positions                : Front: L C R, Side: L R, LFE\nSampling rate                    : 48.0 KHz\nBit depth                        : 16 bits\nStream size                      : 372 MiB (27%)\n\n[color=red][size=3][b]Plot:[/b][/size][/color]\nThe life story of Howard Marks, an elite British drug smuggler.\n\n[color=red][size=3][b]Group Notes:[/b][/size][/color]\nSpecial thanks to HiTM4N\n\n[color=red][size=3][b]Screens:[/b][/size][/color]\n\n[img]http://img262.imageshack.us/img262/5808/70774213.png[/img]\n[img]http://img262.imageshack.us/img262/1470/31280429.png[/img]","torrent":{"xt":"urn:btih:03e871e0730602987865623f3e8c7e14876a4a90","amp;dn":"Mr.Nice.2010.DVDRiP.XViD.AC3.NiTR0","amp;tr":["udp%3A%2F%2Ftracker.openbittorrent.com%3A80","udp%3A%2F%2Fopen.demonii.com%3A1337","udp%3A%2F%2Ftracker.coppersurfer.tk%3A6969","udp%3A%2F%2Fexodus.desync.com%3A6969"],"infoHash":"03e871e0730602987865623f3e8c7e14876a4a90","infoHashBuffer":{"type":"Buffer","data":[3,232,113,224,115,6,2,152,120,101,98,63,62,140,126,20,135,106,74,144]},"announce":[],"urlList":[]}}